<?xml version="1.0" encoding="UTF-8"?>
<!DOCTYPE svg PUBLIC "-//W3C//DTD SVG 1.1//EN" "http://www.w3.org/Graphics/SVG/1.1/DTD/svg11.dtd">
<!-- Creator: CorelDRAW 2020 (64-Bit) -->
<svg xmlns="http://www.w3.org/2000/svg" xml:space="preserve" width="800px" height="800px" version="1.1" style="shape-rendering:geometricPrecision; text-rendering:geometricPrecision; image-rendering:optimizeQuality; fill-rule:evenodd; clip-rule:evenodd"
viewBox="0 0 800 800"
 xmlns:xlink="http://www.w3.org/1999/xlink"
 xmlns:xodm="http://www.corel.com/coreldraw/odm/2003">
 <defs>
  <style type="text/css">
   <![CDATA[
    .fil0 {fill:#222222}
    .fil1 {fill:#aaaaaa}
    .fil2 {fill:#009846}
    .fil3 {fill:#ffffff;fill-rule:nonzero}
   ]]>
  </style>
 </defs>
 <g id="Ebene_x0020_1">
  <metadata id="CorelCorpID_0Corel-Layer"/>
  <circle class="fil0" cx="400" cy="400" r="400"/>
  <rect class="fil1" x="395" y="20.92" width="10" height="52.5"/>
  <rect class="fil1" x="395" y="20.92" width="10" height="52.5"/>
  <rect class="fil1" x="395" y="20.92" width="10" height="52.5"/>
  <rect class="fil1" x="395" y="20.92" width="10" height="52.5"/>
  <rect class="fil2" transform="matrix(0.497147 -0.0522522 0.0497762 0.473589 357.889 23.2542)" width="10" height="52.5"/>
  <rect class="fil2" transform="matrix(0.488961 -0.103932 0.0990071 0.465792 318.739 29.7199)" width="10" height="52.5"/>
  <rect class="fil2" transform="matrix(0.475419 -0.154473 0.147153 0.452891 280.479 40.2424)" width="10" height="52.5"/>
  <rect class="fil2" transform="matrix(0.456668 -0.203322 0.193687 0.435028 243.529 54.7065)" width="10" height="52.5"/>
  <rect class="fil1" transform="matrix(0.866025 -0.5 0.5 0.866025 206.127 74.2043)" width="10" height="52.5"/>
  <rect class="fil1" transform="matrix(0.866025 -0.5 0.5 0.866025 206.127 74.2043)" width="10" height="52.5"/>
  <rect class="fil1" transform="matrix(0.866025 -0.5 0.5 0.866025 206.127 74.2043)" width="10" height="52.5"/>
  <rect class="fil2" transform="matrix(0.404416 -0.293825 0.279902 0.385252 175.158 94.7841)" width="10" height="52.5"/>
  <rect class="fil2" transform="matrix(0.371487 -0.334488 0.318639 0.353884 144.486 119.958)" width="10" height="52.5"/>
  <rect class="fil2" transform="matrix(0.334488 -0.371487 0.353884 0.318639 116.614 148.201)" width="10" height="52.5"/>
  <rect class="fil2" transform="matrix(0.293825 -0.404416 0.385252 0.279902 91.8462 179.202)" width="10" height="52.5"/>
  <rect class="fil1" transform="matrix(0.5 -0.866025 0.866025 0.5 69.2041 214.789)" width="10" height="52.5"/>
  <rect class="fil1" transform="matrix(0.5 -0.866025 0.866025 0.5 69.2041 214.789)" width="10" height="52.5"/>
  <rect class="fil1" transform="matrix(0.5 -0.866025 0.866025 0.5 69.2041 214.789)" width="10" height="52.5"/>
  <rect class="fil2" transform="matrix(0.203322 -0.456668 0.435028 0.193687 52.6739 248.096)" width="10" height="52.5"/>
  <rect class="fil2" transform="matrix(0.154473 -0.475419 0.452891 0.147153 38.6984 285.234)" width="10" height="52.5"/>
  <rect class="fil2" transform="matrix(0.103932 -0.488961 0.465792 0.0990071 28.6814 323.629)" width="10" height="52.5"/>
  <rect class="fil2" transform="matrix(0.0522522 -0.497147 0.473589 0.0497762 22.7327 362.86)" width="10" height="52.5"/>
  <rect class="fil1" transform="matrix(2.64788E-14 -1 1 2.64788E-14 20.9174 405)" width="10" height="52.5"/>
  <rect class="fil1" transform="matrix(2.64788E-14 -1 1 2.64788E-14 20.9174 405)" width="10" height="52.5"/>
  <rect class="fil1" transform="matrix(2.64788E-14 -1 1 2.64788E-14 20.9174 405)" width="10" height="52.5"/>
  <rect class="fil2" transform="matrix(-0.0522522 -0.497147 0.473589 -0.0497762 23.2554 442.11)" width="10" height="52.5"/>
  <rect class="fil2" transform="matrix(-0.103932 -0.488961 0.465792 -0.0990071 29.721 481.26)" width="10" height="52.5"/>
  <rect class="fil2" transform="matrix(-0.154473 -0.475419 0.452891 -0.147153 40.2436 519.52)" width="10" height="52.5"/>
  <rect class="fil2" transform="matrix(-0.203322 -0.456668 0.435028 -0.193687 54.7077 556.47)" width="10" height="52.5"/>
  <rect class="fil1" transform="matrix(-0.5 -0.866025 0.866025 -0.5 74.2055 593.871)" width="10" height="52.5"/>
  <rect class="fil1" transform="matrix(-0.5 -0.866025 0.866025 -0.5 74.2055 593.871)" width="10" height="52.5"/>
  <rect class="fil1" transform="matrix(-0.5 -0.866025 0.866025 -0.5 74.2055 593.871)" width="10" height="52.5"/>
  <rect class="fil2" transform="matrix(-0.293825 -0.404416 0.385252 -0.279902 94.7852 624.841)" width="10" height="52.5"/>
  <rect class="fil2" transform="matrix(-0.334488 -0.371487 0.353884 -0.318639 119.96 655.513)" width="10" height="52.5"/>
  <rect class="fil2" transform="matrix(-0.371487 -0.334488 0.318639 -0.353884 148.202 683.385)" width="10" height="52.5"/>
  <rect class="fil2" transform="matrix(-0.404416 -0.293825 0.279902 -0.385252 179.203 708.153)" width="10" height="52.5"/>
  <rect class="fil1" transform="matrix(-0.866025 -0.5 0.5 -0.866025 214.79 730.795)" width="10" height="52.5"/>
  <rect class="fil1" transform="matrix(-0.866025 -0.5 0.5 -0.866025 214.79 730.795)" width="10" height="52.5"/>
  <rect class="fil1" transform="matrix(-0.866025 -0.5 0.5 -0.866025 214.79 730.795)" width="10" height="52.5"/>
  <rect class="fil2" transform="matrix(-0.456668 -0.203322 0.193687 -0.435028 248.097 747.325)" width="10" height="52.5"/>
  <rect class="fil2" transform="matrix(-0.475419 -0.154473 0.147153 -0.452891 285.235 761.3)" width="10" height="52.5"/>
  <rect class="fil2" transform="matrix(-0.488961 -0.103932 0.0990071 -0.465792 323.63 771.317)" width="10" height="52.5"/>
  <rect class="fil2" transform="matrix(-0.497147 -0.0522522 0.0497762 -0.473589 362.861 777.266)" width="10" height="52.5"/>
  <rect class="fil1" x="395" y="726.58" width="10" height="52.5"/>
  <rect class="fil1" x="395" y="726.58" width="10" height="52.5"/>
  <rect class="fil1" x="395" y="726.58" width="10" height="52.5"/>
  <rect class="fil2" transform="matrix(-0.497147 0.0522522 -0.0497762 -0.473589 442.111 776.743)" width="10" height="52.5"/>
  <rect class="fil2" transform="matrix(-0.488961 0.103932 -0.0990071 -0.465792 481.261 770.278)" width="10" height="52.5"/>
  <rect class="fil2" transform="matrix(-0.475419 0.154473 -0.147153 -0.452891 519.521 759.755)" width="10" height="52.5"/>
  <rect class="fil2" transform="matrix(-0.456668 0.203322 -0.193687 -0.435028 556.471 745.291)" width="10" height="52.5"/>
  <rect class="fil1" transform="matrix(-0.866025 0.5 -0.5 -0.866025 593.873 725.793)" width="10" height="52.5"/>
  <rect class="fil1" transform="matrix(-0.866025 0.5 -0.5 -0.866025 593.873 725.793)" width="10" height="52.5"/>
  <rect class="fil1" transform="matrix(-0.866025 0.5 -0.5 -0.866025 593.873 725.793)" width="10" height="52.5"/>
  <rect class="fil2" transform="matrix(-0.404416 0.293825 -0.279902 -0.385252 624.842 705.214)" width="10" height="52.5"/>
  <rect class="fil2" transform="matrix(-0.371487 0.334488 -0.318639 -0.353884 655.514 680.039)" width="10" height="52.5"/>
  <rect class="fil2" transform="matrix(-0.334488 0.371487 -0.353884 -0.318639 683.386 651.797)" width="10" height="52.5"/>
  <rect class="fil2" transform="matrix(-0.293825 0.404416 -0.385252 -0.279902 708.154 620.795)" width="10" height="52.5"/>
  <rect class="fil1" transform="matrix(-0.5 0.866025 -0.866025 -0.5 730.796 585.209)" width="10" height="52.5"/>
  <rect class="fil1" transform="matrix(-0.5 0.866025 -0.866025 -0.5 730.796 585.209)" width="10" height="52.5"/>
  <rect class="fil1" transform="matrix(-0.5 0.866025 -0.866025 -0.5 730.796 585.209)" width="10" height="52.5"/>
  <rect class="fil2" transform="matrix(-0.203322 0.456668 -0.435028 -0.193687 747.326 551.902)" width="10" height="52.5"/>
  <rect class="fil2" transform="matrix(-0.154473 0.475419 -0.452891 -0.147153 761.302 514.764)" width="10" height="52.5"/>
  <rect class="fil2" transform="matrix(-0.103932 0.488961 -0.465792 -0.0990071 771.319 476.369)" width="10" height="52.5"/>
  <rect class="fil2" transform="matrix(-0.0522522 0.497147 -0.473589 -0.0497762 777.267 437.137)" width="10" height="52.5"/>
  <rect class="fil1" transform="matrix(-7.9492E-14 1 -1 -7.9492E-14 779.083 394.997)" width="10" height="52.5"/>
  <rect class="fil1" transform="matrix(-7.9492E-14 1 -1 -7.9492E-14 779.083 394.997)" width="10" height="52.5"/>
  <rect class="fil1" transform="matrix(-7.9492E-14 1 -1 -7.9492E-14 779.083 394.997)" width="10" height="52.5"/>
  <rect class="fil2" transform="matrix(0.0522522 0.497147 -0.473589 0.0497762 776.745 357.887)" width="10" height="52.5"/>
  <rect class="fil2" transform="matrix(0.103932 0.488961 -0.465792 0.0990071 770.279 318.738)" width="10" height="52.5"/>
  <rect class="fil2" transform="matrix(0.154473 0.475419 -0.452891 0.147153 759.756 280.478)" width="10" height="52.5"/>
  <rect class="fil2" transform="matrix(0.203322 0.456668 -0.435028 0.193687 745.292 243.528)" width="10" height="52.5"/>
  <rect class="fil1" transform="matrix(0.5 0.866025 -0.866025 0.5 725.794 206.126)" width="10" height="52.5"/>
  <rect class="fil1" transform="matrix(0.5 0.866025 -0.866025 0.5 725.794 206.126)" width="10" height="52.5"/>
  <rect class="fil1" transform="matrix(0.5 0.866025 -0.866025 0.5 725.794 206.126)" width="10" height="52.5"/>
  <rect class="fil2" transform="matrix(0.293825 0.404416 -0.385252 0.279902 705.215 175.157)" width="10" height="52.5"/>
  <rect class="fil2" transform="matrix(0.334488 0.371487 -0.353884 0.318639 680.04 144.485)" width="10" height="52.5"/>
  <rect class="fil2" transform="matrix(0.371487 0.334488 -0.318639 0.353884 651.798 116.613)" width="10" height="52.5"/>
  <rect class="fil2" transform="matrix(0.404416 0.293825 -0.279902 0.385252 620.797 91.845)" width="10" height="52.5"/>
  <rect class="fil1" transform="matrix(0.866025 0.5 -0.5 0.866025 585.21 69.2029)" width="10" height="52.5"/>
  <rect class="fil1" transform="matrix(0.866025 0.5 -0.5 0.866025 585.21 69.2029)" width="10" height="52.5"/>
  <rect class="fil1" transform="matrix(0.866025 0.5 -0.5 0.866025 585.21 69.2029)" width="10" height="52.5"/>
  <rect class="fil2" transform="matrix(0.456668 0.203322 -0.193687 0.435028 551.903 52.6727)" width="10" height="52.5"/>
  <rect class="fil2" transform="matrix(0.475419 0.154473 -0.147153 0.452891 514.765 38.6972)" width="10" height="52.5"/>
  <rect class="fil2" transform="matrix(0.488961 0.103932 -0.0990071 0.465792 476.37 28.6802)" width="10" height="52.5"/>
  <rect class="fil2" transform="matrix(0.497147 0.0522522 -0.0497762 0.473589 437.139 22.7315)" width="10" height="52.5"/>
  <path class="fil3" d="M394.16 89.34l0 49.44 -12.31 0 0 -26.54c0,-3.83 -0.09,-6.15 -0.27,-6.92 -0.19,-0.77 -0.69,-1.36 -1.51,-1.76 -0.83,-0.39 -2.66,-0.59 -5.5,-0.59l-1.22 0 0 -5.74c5.96,-1.27 10.48,-3.91 13.56,-7.89l7.25 0z"/>
  <path id="1" class="fil3" d="M425.53 130.34l0 8.44 -27.13 0 0.02 -7.06c8.04,-13.14 12.83,-21.26 14.35,-24.39 1.52,-3.12 2.28,-5.56 2.28,-7.3 0,-1.34 -0.24,-2.34 -0.7,-3.01 -0.46,-0.65 -1.16,-0.99 -2.09,-0.99 -0.94,0 -1.65,0.37 -2.11,1.1 -0.46,0.72 -0.69,2.17 -0.69,4.34l0 4.69 -11.06 0 0 -1.8c0,-2.77 0.15,-4.95 0.43,-6.55 0.28,-1.59 0.99,-3.16 2.1,-4.71 1.13,-1.54 2.59,-2.71 4.38,-3.51 1.79,-0.79 3.94,-1.18 6.44,-1.18 4.9,0 8.61,1.22 11.13,3.64 2.51,2.44 3.77,5.51 3.77,9.23 0,2.84 -0.71,5.82 -2.12,8.98 -1.42,3.16 -5.6,9.85 -12.52,20.08l13.52 0z"/>
  <path class="fil3" d="M640.03 276.46l-7.3 4.22 -13.56 -23.5 6.1 -3.52c15.41,0.38 24.84,0.46 28.29,0.21 3.47,-0.25 5.96,-0.82 7.47,-1.69 1.17,-0.68 1.92,-1.38 2.26,-2.11 0.35,-0.72 0.29,-1.49 -0.18,-2.3 -0.47,-0.81 -1.14,-1.23 -1.99,-1.26 -0.87,-0.03 -2.24,0.5 -4.13,1.58l-4.07 2.36 -5.52 -9.57 1.55 -0.9c2.4,-1.39 4.36,-2.35 5.89,-2.91 1.53,-0.55 3.23,-0.73 5.13,-0.53 1.9,0.2 3.65,0.88 5.22,2.02 1.58,1.16 3,2.83 4.25,4.99 2.46,4.24 3.26,8.07 2.41,11.46 -0.85,3.39 -2.89,6.01 -6.11,7.88 -2.45,1.41 -5.39,2.29 -8.83,2.64 -3.44,0.36 -11.31,0.1 -23.64,-0.78l6.76 11.71z"/>
  <path class="fil3" d="M663.15 565.46l-27.96 -16.14 -1.76 3.04 -7.29 -4.22 1.76 -3.03 -7.54 -4.36 6.16 -10.67 7.53 4.35 7.33 -12.69 7.3 4.21 22.63 25.38 -8.16 14.13zm-21.79 -26.82l18.2 10.51 -15.5 -15.21 -2.7 4.7z"/>
  <path class="fil3" d="M544.63 675.17l-3.95 -6.84 13.24 -7.65 -4.2 -7.27c-0.52,2.92 -2.09,5.13 -4.69,6.63 -2.95,1.71 -5.65,2.16 -8.11,1.38 -2.46,-0.78 -5.04,-3.51 -7.75,-8.2l-3.52 -6.1c-1.75,-3.03 -2.88,-5.33 -3.42,-6.93 -0.53,-1.58 -0.66,-3.25 -0.4,-5.01 0.25,-1.75 1.04,-3.44 2.37,-5.07 1.33,-1.63 3.22,-3.15 5.67,-4.55 2.75,-1.6 5.45,-2.51 8.09,-2.76 2.66,-0.25 4.97,0.32 6.95,1.72 1.98,1.39 4.13,4.08 6.42,8.06l1.34 2.32 -10.68 6.17 -1.54 -2.67c-1.59,-2.77 -2.82,-4.68 -3.68,-5.73 -0.87,-1.05 -1.88,-1.24 -3.03,-0.58 -0.53,0.3 -0.85,0.72 -0.99,1.24 -0.13,0.52 -0.1,0.99 0.1,1.39 0.2,0.4 1.14,2.1 2.82,5.1l4.9 8.49c0.93,1.6 1.73,2.59 2.39,2.98 0.68,0.39 1.4,0.36 2.17,-0.09 0.5,-0.28 0.82,-0.67 0.99,-1.16 0.16,-0.49 0.19,-0.94 0.09,-1.35 -0.1,-0.39 -0.52,-1.22 -1.24,-2.47l10.58 -6.1 12 21.82 -22.92 13.23z"/>
  <path class="fil3" d="M385.19 697.47l12.31 0c0,2.31 0.02,3.77 0.07,4.36 0.05,0.6 0.3,1.12 0.75,1.52 0.44,0.41 1.04,0.62 1.8,0.62 0.64,0 1.16,-0.2 1.58,-0.59 0.4,-0.38 0.64,-0.87 0.71,-1.49 0.06,-0.61 0.09,-1.84 0.09,-3.68l0 -7.87c-0.64,1.31 -1.56,2.29 -2.78,2.95 -1.23,0.66 -2.74,0.99 -4.53,0.99 -2.26,0 -4.26,-0.62 -5.99,-1.83 -1.74,-1.22 -2.84,-2.68 -3.3,-4.39 -0.47,-1.71 -0.71,-4.02 -0.71,-6.93l0 -3.92c0,-3.46 0.13,-6.04 0.39,-7.72 0.27,-1.69 0.97,-3.25 2.13,-4.68 1.14,-1.44 2.73,-2.55 4.73,-3.34 2.01,-0.8 4.34,-1.19 7.01,-1.19 3.32,0 6.04,0.46 8.15,1.37 2.12,0.92 3.75,2.23 4.91,3.95 1.15,1.72 1.82,3.52 2.01,5.42 0.2,1.88 0.29,5.56 0.29,11.01l0 6.83c0,5.88 -0.08,9.81 -0.26,11.79 -0.18,1.98 -0.87,3.87 -2.12,5.63 -1.24,1.77 -2.94,3.1 -5.09,3.99 -2.14,0.88 -4.62,1.32 -7.43,1.32 -3.46,0 -6.31,-0.56 -8.52,-1.68 -2.22,-1.12 -3.81,-2.7 -4.77,-4.74 -0.95,-2.04 -1.43,-4.61 -1.43,-7.7zm12.31 -15.38c0,1.74 0.2,2.94 0.58,3.58 0.4,0.66 1.03,0.98 1.92,0.98 0.86,0 1.5,-0.31 1.9,-0.92 0.4,-0.63 0.6,-1.84 0.6,-3.64l0 -8.92c0,-2.17 -0.19,-3.59 -0.57,-4.27 -0.38,-0.66 -1.01,-1 -1.9,-1 -0.53,0 -1.09,0.26 -1.67,0.78 -0.57,0.52 -0.86,1.91 -0.86,4.18l0 9.23z"/>
  <polygon class="fil3" points="234.49,663.12 239.88,653.8 266.01,624.27 276.64,630.4 248.79,661.12 259.34,667.21 254.9,674.9 "/>
  <path class="fil3" d="M145 536.79c-0.27,-1.94 -0.02,-3.69 0.75,-5.26 0.77,-1.58 3.53,-3.73 8.27,-6.47 3.45,-1.99 6.19,-3.13 8.22,-3.41 2.02,-0.27 4.11,0.26 6.28,1.59 2.17,1.33 4.2,3.63 6.07,6.89 1.84,3.17 2.78,5.97 2.85,8.4 0.06,2.43 -0.5,4.53 -1.69,6.28 -1.2,1.76 -3.72,3.75 -7.58,5.98 -2.59,1.5 -4.95,2.59 -7.09,3.3 -2.12,0.7 -4.37,0.33 -6.73,-1.1 0.13,1.68 -0.31,3.26 -1.31,4.71 -1,1.46 -2.56,2.82 -4.7,4.05 -3.67,2.12 -7.03,2.7 -10.05,1.71 -3.02,-0.97 -5.71,-3.51 -8.06,-7.58 -2.71,-4.7 -3.62,-8.51 -2.7,-11.44 0.93,-2.92 3.2,-5.43 6.82,-7.54 2.31,-1.32 4.15,-1.99 5.51,-1.99 1.37,0 3.08,0.63 5.14,1.88zm-5.73 11.31c-1.45,0.83 -2.33,1.51 -2.65,2.03 -0.32,0.53 -0.27,1.16 0.15,1.88 0.4,0.71 0.93,1.03 1.57,0.99 0.65,-0.04 1.66,-0.46 3.03,-1.25l3.25 -1.88c1.28,-0.75 2.1,-1.41 2.43,-1.97 0.32,-0.56 0.3,-1.18 -0.08,-1.85 -0.41,-0.71 -0.93,-1.04 -1.55,-1.01 -0.63,0.03 -1.7,0.49 -3.22,1.36l-2.93 1.7zm17.66 -10.48c-1.64,0.94 -2.63,1.74 -2.97,2.39 -0.35,0.64 -0.32,1.32 0.1,2.05 0.41,0.7 0.96,1.05 1.66,1.06 0.69,0.01 1.88,-0.47 3.56,-1.44l5.55 -3.19c1.85,-1.08 2.94,-1.93 3.27,-2.59 0.33,-0.64 0.28,-1.34 -0.14,-2.08 -0.44,-0.75 -1,-1.11 -1.7,-1.06 -0.69,0.04 -1.97,0.61 -3.85,1.69l-5.48 3.17z"/>
  <path class="fil3" d="M125.66 414.81l0 -12.31c2.31,0 3.77,-0.03 4.36,-0.09 0.61,-0.07 1.12,-0.32 1.52,-0.76 0.41,-0.44 0.62,-1.05 0.62,-1.81 0,-0.63 -0.2,-1.15 -0.58,-1.57 -0.39,-0.41 -0.88,-0.65 -1.49,-0.7 -0.62,-0.05 -1.85,-0.07 -3.69,-0.07l-7.87 0c1.32,0.61 2.31,1.53 2.96,2.75 0.66,1.23 0.98,2.75 0.98,4.56 0,2.26 -0.61,4.26 -1.83,5.99 -1.22,1.74 -2.69,2.83 -4.4,3.3 -1.71,0.47 -4.02,0.71 -6.94,0.71l-3.93 0c-3.47,0 -6.05,-0.13 -7.73,-0.41 -1.7,-0.28 -3.26,-0.98 -4.69,-2.12 -1.44,-1.14 -2.55,-2.72 -3.35,-4.74 -0.8,-2.01 -1.19,-4.35 -1.19,-7.02 0,-3.3 0.46,-6.01 1.37,-8.13 0.92,-2.11 2.24,-3.75 3.96,-4.91 1.72,-1.17 3.52,-1.84 5.42,-2.02 1.89,-0.18 5.56,-0.27 11,-0.27l6.87 0c5.88,0 9.82,0.08 11.8,0.24 1.98,0.16 3.87,0.87 5.64,2.12 1.77,1.25 3.09,2.95 3.98,5.08 0.88,2.15 1.33,4.62 1.33,7.43 0,3.48 -0.56,6.33 -1.67,8.53 -1.13,2.21 -2.71,3.81 -4.74,4.77 -2.05,0.97 -4.62,1.45 -7.71,1.45zm-15.4 -12.31c2.09,0 3.37,-0.27 3.86,-0.82 0.49,-0.54 0.73,-1.11 0.73,-1.68 0,-0.86 -0.32,-1.5 -0.93,-1.9 -0.63,-0.4 -1.84,-0.6 -3.66,-0.6l-8.95 0c-2.17,0 -3.6,0.19 -4.27,0.57 -0.67,0.38 -1.01,1.01 -1.01,1.9 0,0.53 0.26,1.09 0.78,1.66 0.52,0.58 1.92,0.87 4.2,0.87l9.25 0z"/>
  <path class="fil3" d="M127.74 250.32l42.79 24.71 -6.17 10.67 -22.94 -13.25c-3.31,-1.9 -5.34,-2.98 -6.1,-3.21 -0.77,-0.22 -1.52,-0.08 -2.28,0.43 -0.75,0.52 -1.85,2.01 -3.27,4.48l-0.61 1.05 -5 -2.88c1.88,-5.8 1.86,-11.04 -0.05,-15.71l3.63 -6.29z"/>
  <path id="1" class="fil3" d="M159.16 229.35l14.27 8.24c3.25,1.86 5.5,3.41 6.78,4.61 1.28,1.21 2.24,2.74 2.88,4.59 0.65,1.85 0.8,3.73 0.45,5.62 -0.33,1.9 -1.06,3.82 -2.18,5.75 -1.47,2.55 -2.99,4.5 -4.57,5.86 -1.56,1.35 -3.26,2.16 -5.09,2.44 -1.83,0.29 -3.56,0.24 -5.19,-0.13 -1.62,-0.37 -3.95,-1.44 -6.96,-3.18l-14.93 -8.62c-3.93,-2.26 -6.68,-4.3 -8.24,-6.12 -1.57,-1.8 -2.36,-4.05 -2.37,-6.75 -0.02,-2.7 0.8,-5.49 2.46,-8.36 1.35,-2.35 2.98,-4.2 4.86,-5.57 1.89,-1.38 3.69,-2.19 5.4,-2.42 1.71,-0.24 3.4,-0.09 5.06,0.44 1.67,0.53 4.13,1.72 7.37,3.6zm-9.76 8.59c-2.27,-1.31 -3.76,-2.02 -4.46,-2.13 -0.7,-0.11 -1.28,0.25 -1.75,1.05 -0.46,0.79 -0.46,1.5 0.01,2.1 0.46,0.61 1.79,1.55 3.99,2.82l20.87 12.05c2.49,1.44 4.06,2.19 4.7,2.24 0.66,0.06 1.21,-0.31 1.67,-1.1 0.46,-0.8 0.46,-1.48 0,-2.08 -0.46,-0.59 -1.74,-1.5 -3.83,-2.71l-21.2 -12.24z"/>
  <path class="fil3" d="M243.42 131.72l24.69 42.8 -10.67 6.16 -13.24 -22.94c-1.92,-3.31 -3.15,-5.26 -3.69,-5.84 -0.54,-0.57 -1.27,-0.83 -2.19,-0.76 -0.91,0.07 -2.6,0.81 -5.06,2.24l-1.06 0.6 -2.89 -4.98c4.52,-4.1 7.12,-8.64 7.81,-13.64l6.3 -3.64z"/>
  <path id="1" class="fil3" d="M264.03 119.82l24.7 42.79 -10.68 6.17 -13.24 -22.94c-1.92,-3.31 -3.15,-5.26 -3.69,-5.84 -0.54,-0.57 -1.27,-0.83 -2.19,-0.76 -0.9,0.07 -2.6,0.81 -5.06,2.24l-1.06 0.6 -2.89 -4.99c4.52,-4.09 7.13,-8.63 7.82,-13.63l6.29 -3.64z"/>
  <path class="fil3" d="M564.34 136.2l-24.7 42.79 -10.68 -6.16 13.25 -22.94c1.9,-3.31 2.98,-5.35 3.21,-6.12 0.23,-0.76 0.08,-1.51 -0.43,-2.27 -0.52,-0.75 -2.01,-1.84 -4.48,-3.27l-1.05 -0.6 2.88 -5c5.81,1.87 11.05,1.85 15.71,-0.05l6.29 3.62z"/>
 </g>
</svg>
